# Blender 4.0.2
# www.blender.org
mtllib sky_day2.mtl
o Sphere
v 0.339117 10.369541 -21.021065
v 0.339117 1.107174 -31.099667
v 1.714468 15.382299 -7.715796
v 3.036966 13.471886 -14.436898
v 4.255786 10.369541 -20.631102
v 5.324090 6.194489 -26.060364
v 6.200826 1.107174 -30.516047
v 3.036965 15.382299 -7.310248
v 5.631137 13.471886 -13.641389
v 8.021938 10.369541 -19.476198
v 10.117495 6.194489 -24.590454
v 11.837271 1.107174 -28.787611
v 4.255785 15.382299 -6.651674
v 8.021938 13.471886 -12.349550
v 11.492845 10.369541 -17.600740
v 14.535120 6.194489 -22.203449
v 17.031849 1.107174 -25.980791
v 5.324090 15.382299 -5.765384
v 10.117495 13.471886 -10.611029
v 14.535119 10.369541 -15.076797
v 18.407202 6.194489 -18.991083
v 21.584934 1.107174 -22.203445
v 6.200825 15.382299 -4.685436
v 11.837273 13.471886 -8.492635
v 17.031849 10.369541 -12.001367
v 21.584936 6.194489 -15.076800
v 25.321556 1.107174 -17.600739
v 0.339117 16.027369 -0.726083
v 6.852297 15.382299 -3.453333
v 13.115181 13.471886 -6.075777
v 18.887087 10.369541 -8.492633
v 23.946207 6.194489 -10.611030
v 28.098114 1.107174 -12.349545
v 7.253472 15.382299 -2.116423
v 13.902114 13.471886 -3.453333
v 20.029537 10.369541 -4.685435
v 25.400269 6.194489 -5.765385
v 29.807909 1.107174 -6.651671
v 7.388932 15.382299 -0.726083
v 14.167830 13.471886 -0.726082
v 20.415293 10.369541 -0.726081
v 25.891245 6.194489 -0.726084
v 30.385237 1.107174 -0.726080
v 7.253471 15.382299 0.664257
v 13.902114 13.471886 2.001168
v 20.029535 10.369541 3.233272
v 25.400267 6.194489 4.313218
v 29.807907 1.107174 5.199512
v 6.852296 15.382299 2.001167
v 13.115181 13.471886 4.623612
v 18.887083 10.369541 7.040470
v 23.946203 6.194489 9.158861
v 28.098110 1.107174 10.897385
v 6.200823 15.382299 3.233270
v 11.837270 13.471886 7.040470
v 17.031843 10.369541 10.549202
v 21.584934 6.194489 13.624633
v 25.321548 1.107174 16.148573
v 5.324088 15.382299 4.313217
v 10.117491 13.471886 9.158863
v 14.535112 10.369541 13.624633
v 18.407200 6.194489 17.538914
v 21.584927 1.107174 20.751278
v 4.255783 15.382299 5.199507
v 8.021935 13.471886 10.897384
v 11.492838 10.369541 16.148571
v 14.535118 6.194489 20.751280
v 17.031843 1.107174 24.528622
v 3.036963 15.382299 5.858079
v 5.631134 13.471886 12.189219
v 8.021933 10.369541 18.024027
v 10.117492 6.194489 23.138285
v 11.837265 1.107174 27.335440
v 1.714467 15.382299 6.263626
v 3.036963 13.471886 12.984728
v 4.255780 10.369541 19.178925
v 5.324090 6.194489 24.608194
v 6.200820 1.107174 29.063869
v 0.339117 15.382299 6.400562
v 0.339115 13.471886 13.253339
v 0.339114 10.369541 19.568886
v 0.339117 6.194489 25.104521
v 0.339113 1.107174 29.647490
v -1.036233 15.382299 6.263625
v -2.358732 13.471886 12.984728
v -3.577553 10.369541 19.178923
v -4.645856 6.194489 24.608192
v -5.522593 1.107174 29.063868
v -2.358729 15.382299 5.858078
v -4.952903 13.471886 12.189219
v -7.343704 10.369541 18.024019
v -9.439258 6.194489 23.138283
v -11.159037 1.107174 27.335436
v -3.577549 15.382299 5.199505
v -7.343704 13.471886 10.897381
v -10.814608 10.369541 16.148561
v -13.856884 6.194489 20.751278
v -16.353611 1.107174 24.528614
v -4.645853 15.382299 4.313215
v -9.439258 13.471886 9.158859
v -13.856879 10.369541 13.624622
v -17.728964 6.194489 17.538912
v -20.906696 1.107174 20.751268
v -5.522587 15.382299 3.233268
v -11.159035 13.471886 7.040466
v -16.353607 10.369541 10.549191
v -20.906698 6.194489 13.624631
v -24.643314 1.107174 16.148563
v -6.174059 15.382299 2.001165
v -12.436944 13.471886 4.623608
v -18.208841 10.369541 7.040459
v -23.267967 6.194489 9.158860
v -27.419870 1.107174 10.897373
v -6.575233 15.382299 0.664255
v -13.223876 13.471886 2.001165
v -19.351290 10.369541 3.233263
v -24.722031 6.194489 4.313217
v -29.129667 1.107174 5.199501
v -6.710693 15.382299 -0.726084
v -13.489590 13.471886 -0.726085
v -19.737045 10.369541 -0.726088
v -25.213007 6.194489 -0.726084
v -29.706993 1.107174 -0.726089
v -6.575233 15.382299 -2.116423
v -13.223875 13.471886 -3.453334
v -19.351288 10.369541 -4.685439
v -24.722029 6.194489 -5.765385
v -29.129663 1.107174 -6.651678
v -6.174058 15.382299 -3.453332
v -12.436941 13.471886 -6.075777
v -18.208836 10.369541 -8.492635
v -23.267965 6.194489 -10.611027
v -27.419865 1.107174 -12.349549
v -5.522585 15.382299 -4.685434
v -11.159031 13.471886 -8.492633
v -16.353598 10.369541 -12.001365
v -20.906696 6.194489 -15.076797
v -24.643305 1.107174 -17.600739
v -4.645851 15.382299 -5.765380
v -9.439254 13.471886 -10.611025
v -13.856867 10.369541 -15.076792
v -17.728962 6.194489 -18.991079
v -20.906683 1.107174 -22.203442
v -3.577547 15.382299 -6.651670
v -7.343699 13.471886 -12.349545
v -10.814593 10.369541 -17.600731
v -13.856879 6.194489 -22.203445
v -16.353600 1.107174 -25.980782
v -2.358728 15.382299 -7.310241
v -4.952898 13.471886 -13.641382
v -7.343689 10.369541 -19.476183
v -9.439255 6.194489 -24.590450
v -11.159022 1.107174 -28.787598
v -1.036232 15.382299 -7.715788
v -2.358727 13.471886 -14.436891
v -3.577539 10.369541 -20.631081
v -4.645852 6.194489 -26.060360
v -5.522579 1.107174 -30.516026
v 0.339118 15.382299 -7.852724
v 0.339119 13.471886 -14.705501
v 0.339120 6.194489 -26.556686
vn -0.0000 -0.9827 0.1853
vn -0.0365 -0.9827 0.1817
vn -0.0000 -1.0000 -0.0000
vn -0.0000 -0.9327 0.3607
vn -0.0711 -0.9326 0.3538
vn -0.0000 -0.8496 0.5274
vn -0.1040 -0.8495 0.5172
vn -0.0000 -0.7334 0.6798
vn -0.1340 -0.7332 0.6666
vn -0.0000 -0.6661 0.7459
vn -0.1471 -0.6659 0.7314
vn -0.0717 -0.9826 0.1712
vn -0.1395 -0.9325 0.3332
vn -0.2040 -0.8492 0.4871
vn -0.2628 -0.7328 0.6276
vn -0.2883 -0.6655 0.6885
vn -0.2025 -0.9323 0.2998
vn -0.1040 -0.9826 0.1540
vn -0.2959 -0.8488 0.4381
vn -0.3812 -0.7322 0.5644
vn -0.4181 -0.6648 0.6190
vn -0.1324 -0.9825 0.1310
vn -0.2577 -0.9320 0.2549
vn -0.3765 -0.8483 0.3724
vn -0.4847 -0.7315 0.4795
vn -0.5316 -0.6641 0.5258
vn -0.4424 -0.8478 0.2924
vn -0.3029 -0.9318 0.2002
vn -0.5694 -0.7308 0.3764
vn -0.6243 -0.6633 0.4127
vn -0.1557 -0.9824 0.1029
vn -0.1730 -0.9824 0.0709
vn -0.3365 -0.9315 0.1379
vn -0.4913 -0.8474 0.2013
vn -0.6322 -0.7302 0.2590
vn -0.6930 -0.6626 0.2840
vn -0.5214 -0.8471 0.1026
vn -0.3572 -0.9314 0.0703
vn -0.6708 -0.7298 0.1320
vn -0.7352 -0.6622 0.1447
vn -0.1836 -0.9823 0.0361
vn -0.1872 -0.9823 -0.0000
vn -0.3641 -0.9313 -0.0000
vn -0.5316 -0.8470 -0.0000
vn -0.6838 -0.7297 -0.0000
vn -0.7495 -0.6621 -0.0000
vn -0.6708 -0.7298 -0.1320
vn -0.5214 -0.8471 -0.1026
vn -0.7352 -0.6622 -0.1447
vn -0.1836 -0.9823 -0.0361
vn -0.3572 -0.9314 -0.0703
vn -0.1730 -0.9824 -0.0709
vn -0.3365 -0.9315 -0.1379
vn -0.4913 -0.8474 -0.2013
vn -0.6322 -0.7302 -0.2590
vn -0.6930 -0.6626 -0.2840
vn -0.6243 -0.6633 -0.4127
vn -0.5694 -0.7308 -0.3764
vn -0.1557 -0.9824 -0.1029
vn -0.3029 -0.9318 -0.2002
vn -0.4424 -0.8478 -0.2924
vn -0.1324 -0.9825 -0.1310
vn -0.2577 -0.9320 -0.2549
vn -0.3765 -0.8483 -0.3724
vn -0.4847 -0.7315 -0.4795
vn -0.5316 -0.6641 -0.5258
vn -0.4181 -0.6648 -0.6190
vn -0.3812 -0.7322 -0.5644
vn -0.1040 -0.9826 -0.1540
vn -0.2025 -0.9323 -0.2998
vn -0.2959 -0.8488 -0.4381
vn -0.1395 -0.9325 -0.3332
vn -0.0717 -0.9826 -0.1712
vn -0.2040 -0.8492 -0.4871
vn -0.2628 -0.7328 -0.6276
vn -0.2883 -0.6655 -0.6885
vn -0.0365 -0.9827 -0.1817
vn -0.0711 -0.9326 -0.3538
vn -0.1040 -0.8495 -0.5172
vn -0.1340 -0.7332 -0.6666
vn -0.1471 -0.6659 -0.7314
vn -0.0000 -0.9327 -0.3607
vn -0.0000 -0.9827 -0.1853
vn -0.0000 -0.8496 -0.5274
vn -0.0000 -0.7334 -0.6798
vn -0.0000 -0.6661 -0.7459
vn 0.0365 -0.9827 -0.1817
vn 0.0711 -0.9326 -0.3538
vn 0.1040 -0.8495 -0.5172
vn 0.1340 -0.7332 -0.6666
vn 0.1471 -0.6659 -0.7314
vn 0.2040 -0.8492 -0.4871
vn 0.1395 -0.9325 -0.3332
vn 0.2628 -0.7328 -0.6276
vn 0.2883 -0.6655 -0.6885
vn 0.0717 -0.9826 -0.1712
vn 0.1040 -0.9826 -0.1540
vn 0.2025 -0.9323 -0.2998
vn 0.2959 -0.8488 -0.4381
vn 0.3812 -0.7322 -0.5644
vn 0.4181 -0.6648 -0.6190
vn 0.4847 -0.7315 -0.4795
vn 0.3765 -0.8483 -0.3724
vn 0.5316 -0.6641 -0.5258
vn 0.1324 -0.9825 -0.1310
vn 0.2577 -0.9320 -0.2549
vn 0.1557 -0.9824 -0.1029
vn 0.3029 -0.9318 -0.2002
vn 0.4424 -0.8478 -0.2924
vn 0.5694 -0.7308 -0.3764
vn 0.6243 -0.6633 -0.4127
vn 0.6322 -0.7302 -0.2590
vn 0.4913 -0.8474 -0.2013
vn 0.6930 -0.6626 -0.2840
vn 0.1730 -0.9824 -0.0709
vn 0.3365 -0.9315 -0.1379
vn 0.1836 -0.9823 -0.0361
vn 0.3572 -0.9314 -0.0703
vn 0.5214 -0.8471 -0.1026
vn 0.6708 -0.7298 -0.1320
vn 0.7352 -0.6622 -0.1447
vn 0.7495 -0.6621 -0.0000
vn 0.6838 -0.7297 -0.0000
vn 0.1872 -0.9823 -0.0000
vn 0.3641 -0.9313 -0.0000
vn 0.5316 -0.8470 -0.0000
vn 0.1836 -0.9823 0.0361
vn 0.3572 -0.9314 0.0703
vn 0.5214 -0.8471 0.1026
vn 0.6708 -0.7298 0.1320
vn 0.7352 -0.6622 0.1447
vn 0.6930 -0.6626 0.2840
vn 0.6322 -0.7302 0.2590
vn 0.1730 -0.9824 0.0709
vn 0.3365 -0.9315 0.1379
vn 0.4913 -0.8474 0.2013
vn 0.3029 -0.9318 0.2002
vn 0.1557 -0.9824 0.1029
vn 0.4424 -0.8478 0.2924
vn 0.5694 -0.7308 0.3764
vn 0.6243 -0.6633 0.4127
vn 0.1324 -0.9825 0.1310
vn 0.2577 -0.9320 0.2549
vn 0.3765 -0.8483 0.3724
vn 0.4847 -0.7315 0.4795
vn 0.5316 -0.6641 0.5258
vn 0.2959 -0.8488 0.4381
vn 0.2025 -0.9323 0.2998
vn 0.3812 -0.7322 0.5644
vn 0.4181 -0.6648 0.6190
vn 0.1040 -0.9826 0.1540
vn 0.0717 -0.9826 0.1712
vn 0.1395 -0.9325 0.3332
vn 0.2040 -0.8492 0.4871
vn 0.2628 -0.7328 0.6276
vn 0.2883 -0.6655 0.6885
vn 0.1040 -0.8495 0.5172
vn 0.0711 -0.9326 0.3538
vn 0.1340 -0.7332 0.6666
vn 0.1471 -0.6659 0.7314
vn 0.0365 -0.9827 0.1817
vt 0.593434 0.491297
vt 0.589959 0.473359
vt 0.500670 0.500294
vt 0.687224 0.482453
vt 0.680302 0.446409
vt 0.784406 0.473137
vt 0.773946 0.418314
vt 0.887757 0.463222
vt 0.872987 0.388658
vt 0.998149 0.452929
vt 0.980366 0.357565
vt 0.582991 0.456455
vt 0.666463 0.412352
vt 0.752999 0.366441
vt 0.844199 0.318436
vt 0.944336 0.266702
vt 0.646203 0.381595
vt 0.572852 0.441231
vt 0.721924 0.319891
vt 0.802185 0.255228
vt 0.890803 0.183688
vt 0.559939 0.428283
vt 0.620155 0.355571
vt 0.682500 0.280185
vt 0.749080 0.200680
vt 0.820985 0.113579
vt 0.636032 0.248892
vt 0.589565 0.335163
vt 0.686033 0.157531
vt 0.739577 0.058836
vt 0.544754 0.418104
vt 0.527869 0.411078
vt 0.555676 0.320857
vt 0.584332 0.227323
vt 0.615410 0.128563
vt 0.648934 0.019616
vt 0.529484 0.216231
vt 0.519592 0.313431
vt 0.540677 0.112996
vt 0.551641 0.000127
vt 0.509930 0.407483
vt 0.491640 0.407461
vt 0.482755 0.313441
vt 0.473532 0.216037
vt 0.464314 0.112578
vt 0.452909 0.000100
vt 0.389377 0.127134
vt 0.418570 0.226781
vt 0.356334 0.019265
vt 0.473702 0.411007
vt 0.446670 0.320630
vt 0.456793 0.417988
vt 0.412552 0.334465
vt 0.366789 0.248055
vt 0.318751 0.155991
vt 0.265517 0.056756
vt 0.183854 0.111013
vt 0.255057 0.197975
vt 0.441578 0.428134
vt 0.381936 0.354924
vt 0.320151 0.278974
vt 0.428638 0.441050
vt 0.355929 0.380946
vt 0.280406 0.318454
vt 0.200511 0.251514
vt 0.114345 0.179783
vt 0.057984 0.260916
vt 0.158300 0.315159
vt 0.418465 0.456250
vt 0.335243 0.411417
vt 0.249191 0.364963
vt 0.321150 0.445459
vt 0.411460 0.473140
vt 0.227587 0.416638
vt 0.128392 0.385505
vt 0.019660 0.352596
vt 0.407891 0.491068
vt 0.313975 0.481576
vt 0.216505 0.471588
vt 0.113051 0.460476
vt 0.000190 0.449673
vt 0.314008 0.518373
vt 0.407890 0.509340
vt 0.216377 0.527686
vt 0.112757 0.537005
vt 0.000100 0.548510
vt 0.411461 0.527265
vt 0.320957 0.554549
vt 0.227241 0.582690
vt 0.127453 0.612076
vt 0.019305 0.645356
vt 0.248595 0.634475
vt 0.335093 0.588569
vt 0.156523 0.682784
vt 0.057020 0.736519
vt 0.418403 0.544176
vt 0.428520 0.559407
vt 0.355573 0.619119
vt 0.279673 0.681117
vt 0.198835 0.746436
vt 0.111778 0.818526
vt 0.252737 0.800574
vt 0.319254 0.720748
vt 0.181457 0.888234
vt 0.441416 0.572375
vt 0.381412 0.645269
vt 0.456628 0.582529
vt 0.412032 0.665615
vt 0.365763 0.751899
vt 0.316140 0.843129
vt 0.263362 0.942980
vt 0.386609 0.872477
vt 0.417455 0.773324
vt 0.354344 0.980680
vt 0.473530 0.589524
vt 0.445943 0.679871
vt 0.491462 0.593083
vt 0.482037 0.686964
vt 0.472293 0.784264
vt 0.461429 0.887501
vt 0.450912 0.999900
vt 0.549371 0.999900
vt 0.537742 0.887629
vt 0.509734 0.593078
vt 0.518776 0.686872
vt 0.528257 0.784285
vt 0.527657 0.589510
vt 0.554860 0.679889
vt 0.583116 0.773357
vt 0.612597 0.872852
vt 0.645926 0.980669
vt 0.736844 0.942944
vt 0.683103 0.843750
vt 0.544530 0.582518
vt 0.588769 0.665738
vt 0.634756 0.751972
vt 0.619203 0.645261
vt 0.559708 0.572380
vt 0.681272 0.720894
vt 0.746562 0.801442
vt 0.818609 0.888175
vt 0.572623 0.559479
vt 0.645241 0.619438
vt 0.720810 0.681341
vt 0.800512 0.747582
vt 0.888030 0.818502
vt 0.751821 0.634914
vt 0.665739 0.588995
vt 0.842882 0.684289
vt 0.942402 0.736685
vt 0.582776 0.544310
vt 0.589773 0.527451
vt 0.679924 0.555117
vt 0.773115 0.583410
vt 0.872112 0.614007
vt 0.979644 0.645976
vt 0.783898 0.528815
vt 0.686996 0.519113
vt 0.887236 0.539365
vt 0.998380 0.550021
vt 0.593413 0.509556
s 1
usemtl Material.025
f 159/1/1 3/2/2 28/3/3
f 160/4/4 4/5/5 3/2/2 159/1/1
f 1/6/6 5/7/7 4/5/5 160/4/4
f 161/8/8 6/9/9 5/7/7 1/6/6
f 2/10/10 7/11/11 6/9/9 161/8/8
f 3/2/2 8/12/12 28/3/3
f 4/5/5 9/13/13 8/12/12 3/2/2
f 5/7/7 10/14/14 9/13/13 4/5/5
f 6/9/9 11/15/15 10/14/14 5/7/7
f 7/11/11 12/16/16 11/15/15 6/9/9
f 9/13/13 14/17/17 13/18/18 8/12/12
f 10/14/14 15/19/19 14/17/17 9/13/13
f 11/15/15 16/20/20 15/19/19 10/14/14
f 12/16/16 17/21/21 16/20/20 11/15/15
f 8/12/12 13/18/18 28/3/3
f 13/18/18 18/22/22 28/3/3
f 14/17/17 19/23/23 18/22/22 13/18/18
f 15/19/19 20/24/24 19/23/23 14/17/17
f 16/20/20 21/25/25 20/24/24 15/19/19
f 17/21/21 22/26/26 21/25/25 16/20/20
f 20/24/24 25/27/27 24/28/28 19/23/23
f 21/25/25 26/29/29 25/27/27 20/24/24
f 22/26/26 27/30/30 26/29/29 21/25/25
f 18/22/22 23/31/31 28/3/3
f 19/23/23 24/28/28 23/31/31 18/22/22
f 23/31/31 29/32/32 28/3/3
f 24/28/28 30/33/33 29/32/32 23/31/31
f 25/27/27 31/34/34 30/33/33 24/28/28
f 26/29/29 32/35/35 31/34/34 25/27/27
f 27/30/30 33/36/36 32/35/35 26/29/29
f 31/34/34 36/37/37 35/38/38 30/33/33
f 32/35/35 37/39/39 36/37/37 31/34/34
f 33/36/36 38/40/40 37/39/39 32/35/35
f 29/32/32 34/41/41 28/3/3
f 30/33/33 35/38/38 34/41/41 29/32/32
f 34/41/41 39/42/42 28/3/3
f 35/38/38 40/43/43 39/42/42 34/41/41
f 36/37/37 41/44/44 40/43/43 35/38/38
f 37/39/39 42/45/45 41/44/44 36/37/37
f 38/40/40 43/46/46 42/45/45 37/39/39
f 42/45/45 47/47/47 46/48/48 41/44/44
f 43/46/46 48/49/49 47/47/47 42/45/45
f 39/42/42 44/50/50 28/3/3
f 40/43/43 45/51/51 44/50/50 39/42/42
f 41/44/44 46/48/48 45/51/51 40/43/43
f 44/50/50 49/52/52 28/3/3
f 45/51/51 50/53/53 49/52/52 44/50/50
f 46/48/48 51/54/54 50/53/53 45/51/51
f 47/47/47 52/55/55 51/54/54 46/48/48
f 48/49/49 53/56/56 52/55/55 47/47/47
f 53/56/56 58/57/57 57/58/58 52/55/55
f 49/52/52 54/59/59 28/3/3
f 50/53/53 55/60/60 54/59/59 49/52/52
f 51/54/54 56/61/61 55/60/60 50/53/53
f 52/55/55 57/58/58 56/61/61 51/54/54
f 54/59/59 59/62/62 28/3/3
f 55/60/60 60/63/63 59/62/62 54/59/59
f 56/61/61 61/64/64 60/63/63 55/60/60
f 57/58/58 62/65/65 61/64/64 56/61/61
f 58/57/57 63/66/66 62/65/65 57/58/58
f 63/66/66 68/67/67 67/68/68 62/65/65
f 59/62/62 64/69/69 28/3/3
f 60/63/63 65/70/70 64/69/69 59/62/62
f 61/64/64 66/71/71 65/70/70 60/63/63
f 62/65/65 67/68/68 66/71/71 61/64/64
f 65/70/70 70/72/72 69/73/73 64/69/69
f 66/71/71 71/74/74 70/72/72 65/70/70
f 67/68/68 72/75/75 71/74/74 66/71/71
f 68/67/67 73/76/76 72/75/75 67/68/68
f 64/69/69 69/73/73 28/3/3
f 69/73/73 74/77/77 28/3/3
f 70/72/72 75/78/78 74/77/77 69/73/73
f 71/74/74 76/79/79 75/78/78 70/72/72
f 72/75/75 77/80/80 76/79/79 71/74/74
f 73/76/76 78/81/81 77/80/80 72/75/75
f 75/78/78 80/82/82 79/83/83 74/77/77
f 76/79/79 81/84/84 80/82/82 75/78/78
f 77/80/80 82/85/85 81/84/84 76/79/79
f 78/81/81 83/86/86 82/85/85 77/80/80
f 74/77/77 79/83/83 28/3/3
f 79/83/83 84/87/87 28/3/3
f 80/82/82 85/88/88 84/87/87 79/83/83
f 81/84/84 86/89/89 85/88/88 80/82/82
f 82/85/85 87/90/90 86/89/89 81/84/84
f 83/86/86 88/91/91 87/90/90 82/85/85
f 86/89/89 91/92/92 90/93/93 85/88/88
f 87/90/90 92/94/94 91/92/92 86/89/89
f 88/91/91 93/95/95 92/94/94 87/90/90
f 84/87/87 89/96/96 28/3/3
f 85/88/88 90/93/93 89/96/96 84/87/87
f 89/96/96 94/97/97 28/3/3
f 90/93/93 95/98/98 94/97/97 89/96/96
f 91/92/92 96/99/99 95/98/98 90/93/93
f 92/94/94 97/100/100 96/99/99 91/92/92
f 93/95/95 98/101/101 97/100/100 92/94/94
f 97/100/100 102/102/102 101/103/103 96/99/99
f 98/101/101 103/104/104 102/102/102 97/100/100
f 94/97/97 99/105/105 28/3/3
f 95/98/98 100/106/106 99/105/105 94/97/97
f 96/99/99 101/103/103 100/106/106 95/98/98
f 99/105/105 104/107/107 28/3/3
f 100/106/106 105/108/108 104/107/107 99/105/105
f 101/103/103 106/109/109 105/108/108 100/106/106
f 102/102/102 107/110/110 106/109/109 101/103/103
f 103/104/104 108/111/111 107/110/110 102/102/102
f 107/110/110 112/112/112 111/113/113 106/109/109
f 108/111/111 113/114/114 112/112/112 107/110/110
f 104/107/107 109/115/115 28/3/3
f 105/108/108 110/116/116 109/115/115 104/107/107
f 106/109/109 111/113/113 110/116/116 105/108/108
f 109/115/115 114/117/117 28/3/3
f 110/116/116 115/118/118 114/117/117 109/115/115
f 111/113/113 116/119/119 115/118/118 110/116/116
f 112/112/112 117/120/120 116/119/119 111/113/113
f 113/114/114 118/121/121 117/120/120 112/112/112
f 118/121/121 123/122/122 122/123/123 117/120/120
f 114/117/117 119/124/124 28/3/3
f 115/118/118 120/125/125 119/124/124 114/117/117
f 116/119/119 121/126/126 120/125/125 115/118/118
f 117/120/120 122/123/123 121/126/126 116/119/119
f 119/124/124 124/127/127 28/3/3
f 120/125/125 125/128/128 124/127/127 119/124/124
f 121/126/126 126/129/129 125/128/128 120/125/125
f 122/123/123 127/130/130 126/129/129 121/126/126
f 123/122/122 128/131/131 127/130/130 122/123/123
f 128/131/131 133/132/132 132/133/133 127/130/130
f 124/127/127 129/134/134 28/3/3
f 125/128/128 130/135/135 129/134/134 124/127/127
f 126/129/129 131/136/136 130/135/135 125/128/128
f 127/130/130 132/133/133 131/136/136 126/129/129
f 130/135/135 135/137/137 134/138/138 129/134/134
f 131/136/136 136/139/139 135/137/137 130/135/135
f 132/133/133 137/140/140 136/139/139 131/136/136
f 133/132/132 138/141/141 137/140/140 132/133/133
f 129/134/134 134/138/138 28/3/3
f 134/138/138 139/142/142 28/3/3
f 135/137/137 140/143/143 139/142/142 134/138/138
f 136/139/139 141/144/144 140/143/143 135/137/137
f 137/140/140 142/145/145 141/144/144 136/139/139
f 138/141/141 143/146/146 142/145/145 137/140/140
f 141/144/144 146/147/147 145/148/148 140/143/143
f 142/145/145 147/149/149 146/147/147 141/144/144
f 143/146/146 148/150/150 147/149/149 142/145/145
f 139/142/142 144/151/151 28/3/3
f 140/143/143 145/148/148 144/151/151 139/142/142
f 144/151/151 149/152/152 28/3/3
f 145/148/148 150/153/153 149/152/152 144/151/151
f 146/147/147 151/154/154 150/153/153 145/148/148
f 147/149/149 152/155/155 151/154/154 146/147/147
f 148/150/150 153/156/156 152/155/155 147/149/149
f 151/154/154 156/157/157 155/158/158 150/153/153
f 152/155/155 157/159/159 156/157/157 151/154/154
f 153/156/156 158/160/160 157/159/159 152/155/155
f 149/152/152 154/161/161 28/3/3
f 150/153/153 155/158/158 154/161/161 149/152/152
f 154/161/161 159/1/1 28/3/3
f 155/158/158 160/4/4 159/1/1 154/161/161
f 156/157/157 1/6/6 160/4/4 155/158/158
f 157/159/159 161/8/8 1/6/6 156/157/157
f 158/160/160 2/10/10 161/8/8 157/159/159
